<svg enable-background="new 0 0 699.3 169.1" viewBox="0 0 699.3 169.1" xmlns="http://www.w3.org/2000/svg"><g fill="#2277CC"><path d="m182.1 60.8h30.2c10.9 0 16.5 7 16.5 14.6 0 7.2-4.5 12-9.9 13.2 6.1.9 11 6.9 11 14.1 0 8.6-5.8 15.5-16.7 15.5h-31.1zm27.5 23.1c4.1 0 6.7-2.7 6.7-6.4 0-3.5-2.6-6.3-6.7-6.3h-15.3v12.6h15.3zm.4 23.9c4.6 0 7.4-2.7 7.4-6.8 0-3.6-2.6-6.7-7.4-6.7h-15.7v13.5z"/><path d="m249.6 89.6c0-17.6 13.3-29.7 30.1-29.7 13.1 0 20.4 6.9 24.4 14l-10.5 5.2c-2.4-4.6-7.6-8.3-13.9-8.3-10 0-17.5 8-17.5 18.8s7.6 18.8 17.5 18.8c6.4 0 11.5-3.6 13.9-8.3l10.5 5.1c-4.1 7.1-11.4 14.1-24.4 14.1-16.8-.1-30.1-12.1-30.1-29.7z"/><path d="m364.1 108.3h-25.6l-3.6 9.9h-13.4l22.2-57.4h15.3l22.1 57.4h-13.3zm-22.3-10.6h19l-9.5-26.3z"/><path d="m415.8 79.7v38.5h-12.2v-57.4h12.6l26.5 37.2v-37.2h12.3v57.4h-11.8z"/><path d="m503.1 95.4h-11.4v22.8h-7.1v-57.4h23c10.5 0 18 6.7 18 17.3 0 10.3-7.1 16-14.9 16.7l15.5 23.4h-8.4zm3.6-28.2h-15v21.9h15c6.8 0 11.4-4.6 11.4-11 .1-6.4-4.6-10.9-11.4-10.9z"/><path d="m588.1 105.5h-29.1l-5.1 12.7h-7.9l23-57.4h8.9l23.1 57.4h-7.9zm-27-6.4h24.9l-12.4-31.9z"/><path d="m637.5 93.9-22.6-33.1h8.3l17.8 26.7 17.8-26.7h8.3l-22.5 33.1v24.3h-7.1z"/><path d="m89.2 108.4h6.9v-6.6c0-1.9-1.5-3.4-3.4-3.4s-3.4 1.5-3.4 3.4v6.6z"/><path d="m89.3 98.8c.5-.5 1-.9 1.7-1.2-6.2.3-11.4 1.6-13.5 3.3 2.8-1.1 7-1.8 11.8-2.1"/><path d="m88.2 103.9v-1.1c-5.4.5-9.7 1.7-11.6 3.3 2.8-1.1 6.8-1.9 11.6-2.2"/><path d="m88.2 108.9v-1.1c-5.8.5-10.4 1.8-12.5 3.5 2.9-1.3 7.4-2.1 12.5-2.4"/><path d="m165.1 59.5-60.9-13.3v-.4l60.9-13.3-60.9 11.2v-.3h.4c1.5 0 2.1-1.9.8-2.8l-11.1-7.6c.5-.5.8-1.1.8-1.9 0-1.2-.8-2.2-2-2.5l-.6-11.3-.5 11.4c-1.1.3-2 1.3-2 2.5 0 .7.3 1.4.8 1.9l-11.1 7.5c-1.2.8-.6 2.8.8 2.8h.5v.3l-60.9-11.2 60.9 13.3v.4l-60.9 13.3 60.9-11.2v.7h-2.2c-2.5 0-4.5 2-4.5 4.5v13.2c0 2.2 1.1 4.1 2.8 5.3l-9.1 57.9 11.8-56.8c.3 0 .6.1.9.1h6.8c.1 0 .1.1.2.1-2.5.4-4.5 1.1-5.5 1.9 1.6-.6 3.7-1.1 6.2-1.3 1.1 1 2.2 2.3 3.4 3.9-4.8.2-8.8 1.2-10.5 2.5 2.6-1 6.6-1.7 11.1-1.7.8 1.2 1.6 2.5 2.5 4.1-.3 0-.6 0-1 0-6.2 0-11.5 1.2-13.5 2.8 2.8-1.1 7.3-1.8 12.4-1.8.9 0 1.8 0 2.6.1.7 1.2 1.3 2.6 2 4.1-1.1-.1-2.3-.1-3.5-.1-6.6 0-12.3 1.2-14.4 3 3-1.2 7.8-2 13.2-2 1.8 0 3.6.1 5.2.2.4 1 .8 2 1.3 3 .1.3.2.6.4.9-1.8-.2-3.7-.3-5.7-.3-7 0-13 1.3-15.3 3.2 3.2-1.3 8.3-2.1 14.1-2.1 2.7 0 5.2.2 7.4.5.5 1.3 1 2.6 1.5 3.9-2.2-.3-4.7-.5-7.4-.5.7.3 1.4.7 1.9 1.3 2.2.1 4.2.4 6 .7.5 1.3 1 2.6 1.5 3.9-1.9-.4-4.1-.6-6.4-.7v1.3c2.6.2 5 .5 7 1 .5 1.3 1 2.6 1.5 3.8-2.4-.6-5.4-1-8.5-1.1v1.4c3.5.3 6.7.8 9.2 1.5.5 1.3 1 2.5 1.5 3.7-3.6-1.1-8.6-1.7-14.1-1.7-8.7 0-16.1 1.6-18.9 3.9 4-1.6 10.3-2.6 17.4-2.6 6.6 0 12.4.9 16.4 2.2.5 1.3 1 2.5 1.5 3.7-3.9-1.4-9.8-2.3-16.3-2.3-9.1 0-16.8 1.7-19.8 4.1 4.2-1.6 10.8-2.7 18.2-2.7 7.8 0 14.7 1.2 18.8 2.9.5 1.3 1 2.5 1.4 3.6-3.9-1.8-10.8-3-18.6-3-9.5 0-17.6 1.8-20.7 4.3 4.3-1.7 11.2-2.8 19-2.8 9.3 0 17.3 1.6 21.2 3.9.5 1.3 1 2.5 1.4 3.6-3.6-2.4-11.7-4-21-4-9.9 0-18.4 1.9-21.6 4.4 4.5-1.8 11.7-2.9 19.8-2.9 11.4 0 21 2.3 23.9 5.4 1 2.6 1.6 4 1.6 4l-10.5-65.7c2.3-1 4-3.3 4-6v-13.2c0-2.5-2-4.5-4.5-4.5h-2.2v-.7zm-65.2-18.7c.6 0 1.1.1 1.7.1v7.1c-.6 0-1.1-.1-1.7-.1zm0 8.6c.6 0 1.1.1 1.7.1v4.5c-.6 0-1.1-.1-1.7-.1zm-3.9-8.8c.8 0 1.5.1 2.3.1v7.1c-.8 0-1.5-.1-2.3-.1zm0 8.7c.8 0 1.5 0 2.3.1v4.5c-.8 0-1.5-.1-2.3-.1zm-5.1-8.7h3.5v7.1c-1.2 0-2.3 0-3.5 0zm0 8.7h3.5v4.5c-1.2 0-2.3 0-3.5 0zm-3.9-8.6c.8 0 1.5-.1 2.3-.1v7.1c-.8 0-1.5 0-2.3.1zm0 8.7c.8 0 1.5-.1 2.3-.1v4.5c-.8 0-1.5.1-2.3.1zm-3.2-8.5c.5 0 1-.1 1.5-.1v7.1c-.5 0-1 .1-1.5.1zm0 8.6c.5 0 1-.1 1.5-.1v4.6c-.5 0-1 .1-1.5.1zm-6.1 1.5c.8-.4 1.5-.5 2.2-.5v3.9c-.7 0-1.5.1-2.2.4zm0 5.4c.8-.4 1.6-.5 2.2-.5v4.4c-.7 0-1.5.1-2.2.5zm-1.5 5.4c-.2.2-.5.5-.7.8v-4.2c.1-.1.2-.1.3-.3s.3-.4.4-.5zm0-6.3c-.2.2-.5.4-.7.6v-3.3c.2-.3.5-.5.7-.8zm32.9-3.4c.2.2.5.5.7.8v3.3c-.2-.2-.5-.4-.7-.6zm0 5.5c.1.2.3.3.4.5.1.1.2.2.3.3v4.2c-.2-.3-.5-.5-.7-.8zm-3.8-7.1c.7 0 1.5.2 2.2.5v3.7c-.8-.3-1.6-.4-2.2-.4zm0 5.4c.7 0 1.5.2 2.2.5v4.3c-.8-.4-1.6-.5-2.2-.5z"/><path d="m92.5 141.3c-21.6-3.6-43.3-7.2-64.3.5 21-9.5 42.5-7.7 64.1-5.8 21.6 3.6 43.3 7.2 64.3-.5-21 9.5-42.5 7.7-64.1 5.8"/><path d="m93 150.2c-21.6-3.6-43.3-7.2-64.3.5 21-9.5 42.5-7.7 64.1-5.8 21.6 3.6 43.3 7.2 64.3-.5-21 9.5-42.6 7.6-64.1 5.8"/></g></svg>
