<svg enable-background="new 0 0 500 500" viewBox="0 0 500 500" xmlns="http://www.w3.org/2000/svg"><path d="m0 0h500v500h-500z" fill="#27c"/><g fill="#fff"><path d="m239.8 320.7h20.4v-19.5c0-5.6-4.6-10.2-10.2-10.2s-10.2 4.6-10.2 10.2z"/><path d="m240.2 292.3c1.4-1.5 3.1-2.7 5-3.4-18.5.9-33.7 4.7-40.1 9.7 8.4-3.2 20.8-5.6 35.1-6.3"/><path d="m236.8 307.4v-3.2c-15.9 1.5-28.6 5.1-34.4 9.7 8.3-3.3 20.4-5.6 34.4-6.5"/><path d="m236.8 322.3v-3.4c-17.2 1.5-31 5.3-37.2 10.3 8.9-3.6 22.1-6.1 37.2-6.9"/><path d="m465.2 175.6-180.8-39.5v-1.1l180.8-39.5-180.8 33.1v-1h1.2c4.4 0 6.2-5.7 2.5-8.2l-33-22.2c1.5-1.4 2.5-3.4 2.5-5.6 0-3.6-2.5-6.6-5.9-7.4l-1.7-33.4-1.7 33.4c-3.4.8-5.9 3.8-5.9 7.4 0 2.2 1 4.2 2.5 5.6l-33 22.2c-3.7 2.5-1.9 8.2 2.5 8.2h1.2v1l-180.8-33.1 180.8 39.5v1.1l-180.8 39.5 180.8-33.1v2h-6.6c-7.4 0-13.4 6-13.4 13.4v39.2c0 6.5 3.3 12.3 8.3 15.7l-26.9 171.7 35-168.5c.9.1 1.8.2 2.7.2h20.1c.2.1.3.3.5.4-7.5 1.3-13.3 3.3-16.4 5.7 4.6-1.8 10.9-3.2 18.3-4 3.2 3 6.6 6.9 10.1 11.7-14.4.7-26.2 3.6-31.1 7.6 7.6-3 19.4-4.9 32.9-5.1 2.4 3.5 4.9 7.5 7.4 12.1-.9 0-1.9 0-2.8 0-18.4 0-34.1 3.4-40.2 8.3 8.4-3.3 21.8-5.4 36.8-5.4 2.7 0 5.3.1 7.8.2 1.9 3.7 3.9 7.7 5.8 12-3.3-.2-6.8-.4-10.4-.4-19.6 0-36.4 3.7-42.8 8.8 9-3.5 23.2-5.8 39.3-5.8 5.4 0 10.6.3 15.5.7 1.2 2.9 2.5 5.9 3.7 9 .4.9.7 1.9 1.1 2.8-5.2-.6-10.9-.9-16.8-.9-20.9 0-38.6 3.9-45.5 9.4 9.5-3.7 24.7-6.2 41.7-6.2 7.9 0 15.4.5 22.1 1.4 1.5 3.9 3.1 7.8 4.6 11.7-6.6-1-14-1.5-21.8-1.6 2.2.8 4 2 5.5 3.7 6.4.4 12.5 1.1 17.9 2 1.5 3.9 3 7.7 4.5 11.5-5.7-1.1-12.2-1.8-19.1-2.2v3.8c7.7.6 14.8 1.6 20.9 3 1.5 3.8 3 7.6 4.4 11.3-7.2-1.7-15.9-2.9-25.3-3.4v4c10.4.8 19.7 2.3 27.3 4.4 1.5 3.8 3 7.5 4.4 11.1-10.8-3.1-25.6-5.1-41.9-5.1-25.7 0-47.7 4.8-56.1 11.6 11.8-4.6 30.5-7.6 51.5-7.6 19.5 0 36.9 2.6 48.7 6.6 1.5 3.8 2.9 7.4 4.3 10.9-11.5-4.1-28.9-6.8-48.5-6.8-27 0-50 5-58.8 12.1 12.3-4.8 31.9-8 53.9-8 23.2 0 43.6 3.4 55.8 8.7 1.5 3.8 2.9 7.4 4.3 10.8-11.6-5.4-32-9-55.2-9-28.2 0-52.2 5.3-61.5 12.7 12.9-5 33.3-8.3 56.4-8.3 27.5 0 51.4 4.7 63 11.5 1.5 3.9 3 7.5 4.2 10.8-10.8-7-34.6-11.9-62.3-11.9-29.4 0-54.5 5.5-64.1 13.2 13.5-5.3 34.8-8.7 58.8-8.7 33.8 0 62.3 6.8 71 16 3 7.6 4.7 11.9 4.7 11.9l-30.5-194.6c7-2.9 11.9-9.7 11.9-17.7v-38.9c0-7.4-6-13.4-13.4-13.4h-6.6v-2zm-193.7-55.4c1.7.1 3.4.2 5.1.4v21.1c-1.7-.1-3.4-.2-5.1-.3zm0 25.7 5.1.3v13.4c-1.7-.1-3.4-.2-5.1-.4zm-11.6-26.3 6.9.3v21.1c-2.3-.1-4.6-.2-6.9-.2zm0 25.8c2.3.1 4.6.1 6.9.2v13.3c-2.3-.1-4.6-.2-6.9-.3zm-15.1-25.9c3.4-.1 6.9-.1 10.3 0v21.2c-3.4 0-6.9 0-10.3 0zm0 25.8h10.3v13.3c-3.4 0-6.9 0-10.3 0zm-11.6-25.4c2.3-.1 4.6-.2 6.9-.3v21.2c-2.3.1-4.6.1-6.9.2zm0 25.7c2.3-.1 4.6-.2 6.9-.2v13.3c-2.3.1-4.6.2-6.9.3zm-9.3-25.1c1.5-.1 3-.2 4.5-.3v21.1c-1.5.1-3 .2-4.5.3zm0 25.6 4.5-.3v13.4c-1.5.1-3 .2-4.5.3zm-18.1 4.5c2.3-1.1 4.6-1.6 6.6-1.6v11.5c-2 .1-4.3.4-6.6 1.2zm0 16c2.3-1.1 4.6-1.5 6.6-1.5v12.9c-2 0-4.4.4-6.6 1.5zm-4.6 16c-.7.7-1.4 1.4-2.1 2.3v-12.5c.3-.2.7-.4.9-.8.4-.6.8-1.1 1.2-1.6zm0-18.7c-.7.5-1.4 1.1-2.1 1.7v-9.7c.6-.8 1.3-1.6 2.1-2.2zm97.6-10.2c.7.7 1.4 1.4 2.1 2.2v9.7c-.7-.6-1.4-1.2-2.1-1.7zm0 16.4c.4.5.8 1 1.2 1.6.2.3.5.6.9.8v12.5c-.7-.9-1.4-1.6-2.1-2.3zm-11.2-21.1c2.1 0 4.4.5 6.6 1.6v11.1c-2.3-.8-4.6-1.1-6.6-1.2zm0 16.1c2 .1 4.4.5 6.6 1.5v12.9c-2.3-1.1-4.6-1.5-6.6-1.5z"/><path d="m249.7 418.5c-64.2-10.7-128.4-21.5-190.9 1.4 62.3-28.2 126.2-22.8 190.1-17.4 64.2 10.7 128.4 21.5 190.9-1.4-62.2 28.2-126.1 22.8-190.1 17.4"/><path d="m251 444.8c-64.2-10.7-128.4-21.5-190.9 1.4 62.3-28.2 126.2-22.8 190.1-17.4 64.2 10.7 128.4 21.5 190.9-1.4-62.2 28.3-126.1 22.9-190.1 17.4"/></g></svg>